<svg id="Layer_1" data-name="Layer 1" xmlns="http://www.w3.org/2000/svg" viewBox="0 0 603.29 603.29"><defs><style>.cls-1{fill:#fff;}</style></defs><path class="cls-1" d="M134,100.56V175H245.7V100.56h37.23V286.73H245.7V212.26H134v74.47H96.76V100.56Z"/><path class="cls-1" d="M357.4,100.56V249.49H469.1V100.56h37.24V286.73H320.17V100.56Z"/><path class="cls-1" d="M264.31,410.28l18.62,18.62v74.47H96.76V317.19H282.93v74.47ZM245.7,391.66V354.43H134v37.23ZM134,428.9v37.23H245.7V428.9Z"/><path class="cls-1" d="M506.34,503.37H320.17l111.7-148.94H320.17V317.19H506.34L394.64,466.13h111.7Z"/><path class="cls-1" d="M544.65,58.65v486h-486v-486h486m36-36h-558v558h558v-558Z"/></svg>